REM DIRINDEX 1\2,1\3,1\4,1\5
REM DIRNAME folder01,folder02,folder03,folder04,folder05
TITLE ""
FILE "107.mp3" MP3
  TRACK 01 AUDIO
    TITLE "0:"
    INDEX 01 00:00:00
  TRACK 02 AUDIO
    TITLE "2:cjc046_2378"
    INDEX 01 00:00:15
  TRACK 03 AUDIO
    TITLE "0:"
    INDEX 01 00:01:13
  TRACK 04 AUDIO
    TITLE "3:cjc046_2379"
    INDEX 01 00:01:38
  TRACK 05 AUDIO
    TITLE "0:"
    INDEX 01 00:03:25
  TRACK 06 AUDIO
    TITLE "4:cjc046_2380"
    INDEX 01 00:03:41
  TRACK 07 AUDIO
    TITLE "0:"
    INDEX 01 00:04:38
  TRACK 08 AUDIO
    TITLE "2:cjc046_2381"
    INDEX 01 00:05:48
  TRACK 09 AUDIO
    TITLE "0:"
    INDEX 01 00:06:47
  TRACK 10 AUDIO
    TITLE "3:cjc046_2382"
    INDEX 01 00:06:71
  TRACK 11 AUDIO
    TITLE "0:"
    INDEX 01 00:08:11
  TRACK 12 AUDIO
    TITLE "4:cjc046_2383"
    INDEX 01 00:08:24
  TRACK 13 AUDIO
    TITLE "0:"
    INDEX 01 00:09:22
  TRACK 14 AUDIO
    TITLE "2:cjc046_2384"
    INDEX 01 00:10:29
  TRACK 15 AUDIO
    TITLE "0:"
    INDEX 01 00:11:29
  TRACK 16 AUDIO
    TITLE "3:cjc046_2385"
    INDEX 01 00:11:50
  TRACK 17 AUDIO
    TITLE "0:"
    INDEX 01 00:13:00
  TRACK 18 AUDIO
    TITLE "4:cjc046_2386"
    INDEX 01 00:13:10
  TRACK 19 AUDIO
    TITLE "0:"
    INDEX 01 00:14:11
  TRACK 20 AUDIO
    TITLE "2:cjc046_2387"
    INDEX 01 00:15:21
  TRACK 21 AUDIO
    TITLE "0:"
    INDEX 01 00:16:30
  TRACK 22 AUDIO
    TITLE "3:cjc046_2388"
    INDEX 01 00:16:61
  TRACK 23 AUDIO
    TITLE "0:"
    INDEX 01 00:18:50
  TRACK 24 AUDIO
    TITLE "4:cjc046_2389"
    INDEX 01 00:18:64
  TRACK 25 AUDIO
    TITLE "0:"
    INDEX 01 00:20:00
  TRACK 26 AUDIO
    TITLE "2:cjc046_2390"
    INDEX 01 00:21:09
  TRACK 27 AUDIO
    TITLE "0:"
    INDEX 01 00:22:17
  TRACK 28 AUDIO
    TITLE "3:cjc046_2391"
    INDEX 01 00:22:46
  TRACK 29 AUDIO
    TITLE "0:"
    INDEX 01 00:23:63
  TRACK 30 AUDIO
    TITLE "4:cjc046_2392"
    INDEX 01 00:24:02
  TRACK 31 AUDIO
    TITLE "0:"
    INDEX 01 00:25:13
  TRACK 32 AUDIO
    TITLE "2:cjc046_2393"
    INDEX 01 00:26:22
  TRACK 33 AUDIO
    TITLE "0:"
    INDEX 01 00:27:28
  TRACK 34 AUDIO
    TITLE "3:cjc046_2394"
    INDEX 01 00:27:57
  TRACK 35 AUDIO
    TITLE "0:"
    INDEX 01 00:29:46
  TRACK 36 AUDIO
    TITLE "4:cjc046_2395"
    INDEX 01 00:29:56
  TRACK 37 AUDIO
    TITLE "0:"
    INDEX 01 00:30:65
  TRACK 38 AUDIO
    TITLE "2:cjc046_2396"
    INDEX 01 00:32:00
  TRACK 39 AUDIO
    TITLE "0:"
    INDEX 01 00:33:36
  TRACK 40 AUDIO
    TITLE "3:cjc046_2397"
    INDEX 01 00:33:62
  TRACK 41 AUDIO
    TITLE "0:"
    INDEX 01 00:35:39
  TRACK 42 AUDIO
    TITLE "4:cjc046_2398"
    INDEX 01 00:35:43
  TRACK 43 AUDIO
    TITLE "0:"
    INDEX 01 00:37:01
  TRACK 44 AUDIO
    TITLE "2:cjc046_2399"
    INDEX 01 00:38:12
  TRACK 45 AUDIO
    TITLE "0:"
    INDEX 01 00:39:13
  TRACK 46 AUDIO
    TITLE "3:cjc046_2400"
    INDEX 01 00:39:43
  TRACK 47 AUDIO
    TITLE "0:"
    INDEX 01 00:40:32
  TRACK 48 AUDIO
    TITLE "4:cjc046_2401"
    INDEX 01 00:40:44
  TRACK 49 AUDIO
    TITLE "0:"
    INDEX 01 00:41:45
  TRACK 50 AUDIO
    TITLE "2:cjc046_2402"
    INDEX 01 00:42:57
  TRACK 51 AUDIO
    TITLE "0:"
    INDEX 01 00:44:12
  TRACK 52 AUDIO
    TITLE "3:cjc046_2403"
    INDEX 01 00:44:36
  TRACK 53 AUDIO
    TITLE "0:"
    INDEX 01 00:46:07
  TRACK 54 AUDIO
    TITLE "4:cjc046_2404"
    INDEX 01 00:46:21
  TRACK 55 AUDIO
    TITLE "0:"
    INDEX 01 00:47:52
  TRACK 56 AUDIO
    TITLE "2:cjc046_2405"
    INDEX 01 00:48:61
  TRACK 57 AUDIO
    TITLE "0:"
    INDEX 01 00:49:65
  TRACK 58 AUDIO
    TITLE "3:cjc046_2406"
    INDEX 01 00:50:19
  TRACK 59 AUDIO
    TITLE "0:"
    INDEX 01 00:51:40
  TRACK 60 AUDIO
    TITLE "4:cjc046_2407"
    INDEX 01 00:51:52
  TRACK 61 AUDIO
    TITLE "0:"
    INDEX 01 00:52:57
